HIERARCHY
ROOT hip
{
  OFFSET 0 0 0
  CHANNELS 6 Xposition Yposition Zposition Zrotation Yrotation Xrotation
  JOINT abdomen
  {
    OFFSET 0 20.6881 -0.73152
    CHANNELS 3 Zrotation Xrotation Yrotation
    JOINT chest
    {
      OFFSET 0 11.7043 -0.48768
      CHANNELS 3 Zrotation Xrotation Yrotation
      JOINT neck
      {
        OFFSET 0 22.1894 -2.19456
        CHANNELS 3 Zrotation Xrotation Yrotation
        JOINT head
        {
          OFFSET -0.24384 7.07133 1.2192
          CHANNELS 3 Zrotation Xrotation Yrotation
          JOINT leftEye
          {
            OFFSET 4.14528 8.04674 8.04672
            CHANNELS 3 Zrotation Xrotation Yrotation
            End Site
            {
              OFFSET 1 0 0
            }
          }
          JOINT rightEye
          {
            OFFSET -3.6576 8.04674 8.04672
            CHANNELS 3 Zrotation Xrotation Yrotation
            End Site
            {
              OFFSET 1 0 0
            }
          }
        }
      }
      JOINT rCollar
      {
        OFFSET -2.68224 19.2634 -4.8768
        CHANNELS 3 Zrotation Xrotation Yrotation
        JOINT rShldr
        {
          OFFSET -8.77824 -1.95073 1.46304
          CHANNELS 3 Zrotation Xrotation Yrotation
          JOINT rForeArm
          {
            OFFSET -28.1742 -1.7115 0.48768
            CHANNELS 3 Zrotation Xrotation Yrotation
            JOINT rHand
            {
              OFFSET -22.5879 0.773209 7.07136
              CHANNELS 3 Zrotation Xrotation Yrotation
              JOINT rThumb1
              {
                OFFSET -1.2192 -0.487915 3.41376
                CHANNELS 3 Zrotation Xrotation Yrotation
                JOINT rThumb2
                {
                  OFFSET -3.37035 -0.52449 3.41376
                  CHANNELS 3 Zrotation Xrotation Yrotation
                  End Site
                  {
                    OFFSET -1.78271 -1.18214 1.43049
                  }
                }
              }
              JOINT rIndex1
              {
                OFFSET -7.75947 0.938293 5.60832
                CHANNELS 3 Zrotation Xrotation Yrotation
                JOINT rIndex2
                {
                  OFFSET -2.54057 -0.884171 1.56538
                  CHANNELS 3 Zrotation Xrotation Yrotation
                  End Site
                  {
                    OFFSET -1.62519 -0.234802 1.16502
                  }
                }
              }
              JOINT rMid1
              {
                OFFSET -8.24714 1.18213 3.41376
                CHANNELS 3 Zrotation Xrotation Yrotation
                JOINT rMid2
                {
                  OFFSET -3.10165 -0.590103 1.0647
                  CHANNELS 3 Zrotation Xrotation Yrotation
                  End Site
                  {
                    OFFSET -2.48547 -0.328903 0.83742
                  }
                }
              }
              JOINT rRing1
              {
                OFFSET -8.82822 0.546677 1.51678
                CHANNELS 3 Zrotation Xrotation Yrotation
                JOINT rRing2
                {
                  OFFSET -2.60934 -0.819778 -0.0198488
                  CHANNELS 3 Zrotation Xrotation Yrotation
                  End Site
                  {
                    OFFSET -2.33842 -0.294052 0.168128
                  }
                }
              }
              JOINT rPinky1
              {
                OFFSET -8.27202 -0.0477905 -0.4584
                CHANNELS 3 Zrotation Xrotation Yrotation
                JOINT rPinky2
                {
                  OFFSET -1.82734 -0.647385 -0.700984
                  CHANNELS 3 Zrotation Xrotation Yrotation
                  End Site
                  {
                    OFFSET -1.69225 -0.51767 -0.607171
                  }
                }
              }
            }
          }
        }
      }
      JOINT lCollar
      {
        OFFSET 2.68224 19.2634 -4.8768
        CHANNELS 3 Zrotation Xrotation Yrotation
        JOINT lShldr
        {
          OFFSET 8.77824 -1.95073 1.46304
          CHANNELS 3 Zrotation Xrotation Yrotation
          JOINT lForeArm
          {
            OFFSET 28.1742 -1.7115 0.48768
            CHANNELS 3 Zrotation Xrotation Yrotation
            JOINT lHand
            {
              OFFSET 22.5879 0.773209 7.07136
              CHANNELS 3 Zrotation Xrotation Yrotation
              JOINT lThumb1
              {
                OFFSET 1.2192 -0.487915 3.41376
                CHANNELS 3 Zrotation Xrotation Yrotation
                JOINT lThumb2
                {
                  OFFSET 3.37035 -0.52449 3.41376
                  CHANNELS 3 Zrotation Xrotation Yrotation
                  End Site
                  {
                    OFFSET 1.78271 -1.18214 1.43049
                  }
                }
              }
              JOINT lIndex1
              {
                OFFSET 7.75947 0.938293 5.60832
                CHANNELS 3 Zrotation Xrotation Yrotation
                JOINT lIndex2
                {
                  OFFSET 2.54057 -0.884171 1.56538
                  CHANNELS 3 Zrotation Xrotation Yrotation
                  End Site
                  {
                    OFFSET 1.62519 -0.234802 1.16502
                  }
                }
              }
              JOINT lMid1
              {
                OFFSET 8.24714 1.18213 3.41376
                CHANNELS 3 Zrotation Xrotation Yrotation
                JOINT lMid2
                {
                  OFFSET 3.10165 -0.590103 1.0647
                  CHANNELS 3 Zrotation Xrotation Yrotation
                  End Site
                  {
                    OFFSET 2.48547 -0.328903 0.83742
                  }
                }
              }
              JOINT lRing1
              {
                OFFSET 8.82822 0.546677 1.51678
                CHANNELS 3 Zrotation Xrotation Yrotation
                JOINT lRing2
                {
                  OFFSET 2.60934 -0.819778 -0.0198488
                  CHANNELS 3 Zrotation Xrotation Yrotation
                  End Site
                  {
                    OFFSET 2.33842 -0.294052 0.168128
                  }
                }
              }
              JOINT lPinky1
              {
                OFFSET 8.27202 -0.0477905 -0.4584
                CHANNELS 3 Zrotation Xrotation Yrotation
                JOINT lPinky2
                {
                  OFFSET 1.82734 -0.647385 -0.700984
                  CHANNELS 3 Zrotation Xrotation Yrotation
                  End Site
                  {
                    OFFSET 1.69225 -0.51767 -0.607171
                  }
                }
              }
            }
          }
        }
      }
    }
  }
  JOINT rButtock
  {
    OFFSET -8.77824 4.35084 1.2192
    CHANNELS 3 Zrotation Xrotation Yrotation
    JOINT rThigh
    {
      OFFSET 0 -1.70687 -2.19456
      CHANNELS 3 Zrotation Xrotation Yrotation
      JOINT rShin
      {
        OFFSET 0 -36.8199 0.73152
        CHANNELS 3 Zrotation Xrotation Yrotation
        JOINT rFoot
        {
          OFFSET 0.73152 -45.1104 -5.12064
          CHANNELS 3 Zrotation Xrotation Yrotation
          End Site
          {
            OFFSET -1.1221 -3.69964 12.103
          }
        }
      }
    }
  }
  JOINT lButtock
  {
    OFFSET 8.77824 4.35084 1.2192
    CHANNELS 3 Zrotation Xrotation Yrotation
    JOINT lThigh
    {
      OFFSET 0 -1.70687 -2.19456
      CHANNELS 3 Zrotation Xrotation Yrotation
      JOINT lShin
      {
        OFFSET 0 -36.8199 0.73152
        CHANNELS 3 Zrotation Xrotation Yrotation
        JOINT lFoot
        {
          OFFSET -0.73152 -45.1104 -5.12064
          CHANNELS 3 Zrotation Xrotation Yrotation
          End Site
          {
            OFFSET 1.1221 -3.69964 12.103
          }
        }
      }
    }
  }
}
MOTION
Frames:	4
Frame Time:	0.00833333
51.1161 85.2022 -27.6602 0.0 0.0 0.0 0.602241 -0.00285568 0.0171684 0.166047 -0.00431786 0.0287696 -2.08831e-14 0.0 2.23633e-16 -6.24867e-14 3.18055e-15 6.56921e-16 -0.0 0.0 0.0 -0.0 0.0 0.0 -1.04378e-14 4.65902e-18 2.98177e-16 -2.17167e-13 3.10601e-17 2.5842e-15 -3.76409e-12 1.12612e-12 7.63333e-14 -4.3081e-11 -1.11461e-12 3.72125e-13 -1.01623e-10 2.79964e-14 9.92333e-13 -1.75513e-10 4.77083e-14 1.70796e-12 -1.0162e-10 2.70347e-14 9.79611e-13 7.73091 5.47488 0.417314 -1.01624e-10 2.77305e-14 9.89153e-13 2.90554 0.965183 0.102902 -1.0162e-10 2.74323e-14 9.90743e-13 10.2786 0.731801 0.0259123 -1.01628e-10 3.02153e-14 9.98694e-13 2.22167 -0.733487 -0.20892 -1.0634e-14 3.88251e-18 -9.93923e-17 -2.20291e-13 -4.96962e-17 9.93923e-16 -3.76861e-12 -1.12274e-12 8.90555e-14 -4.30866e-11 1.14092e-12 3.78486e-13 -1.01637e-10 4.2725e-14 9.92333e-13 -1.75505e-10 7.63333e-14 1.72227e-12 -1.01642e-10 4.25399e-14 9.98694e-13 -7.73091 5.47488 -0.417314 -1.01636e-10 4.24405e-14 9.85972e-13 -2.90554 0.965183 -0.102902 -1.0164e-10 4.26393e-14 9.90743e-13 -10.2786 0.731801 -0.0259123 -1.01631e-10 4.49253e-14 9.79611e-13 -2.22167 -0.733487 0.20892 -2.03217e-16 0.0 -3.88251e-19 0.985451 -4.60218 -0.0812414 -0.00202242 2.78417 -0.00803906 -0.532629 1.81803 0.0982267 2.03217e-16 0.0 3.88251e-19 -0.0701676 -2.29252 0.0218607 0.00846674 -1.39935 0.0723345 0.526182 3.69178 -0.136087
50.6013 83.5285 -29.0054 0.8275 -13.5954 4.7272 -0.44487 0.0663008 -0.132199 0.882489 0.0551012 -0.0126191 -0.176355 0.283568 0.129663 -1.25918 -2.32928 0.202691 -0.0 0.0 0.0 -0.0 0.0 0.0 -8.94144e-15 4.23877e-14 7.07072e-14 19.7564 16.757 11.621 -19.9285 -17.67 15.1645 0.00502965 -1.58102 -0.221897 -1.89071e-10 -7.70094e-10 5.49563e-10 -3.28742e-10 -1.339e-09 9.48717e-10 -1.89068e-10 -7.70094e-10 5.49547e-10 7.73091 5.47488 0.417314 -1.89073e-10 -7.70093e-10 5.49562e-10 2.90554 0.965183 0.102902 -1.89067e-10 -7.70093e-10 5.49563e-10 10.2786 0.731801 0.0259123 -1.89075e-10 -7.70091e-10 5.4957e-10 2.22167 -0.733487 -0.20892 -9.07284e-15 4.23878e-14 7.04082e-14 -8.02528 -0.577213 -15.0396 9.54709 -6.40661 -11.9952 -0.190114 -9.70224 1.29413 -1.51309e-10 3.08457e-10 5.96828e-11 -2.63162e-10 5.42868e-10 9.99734e-11 -1.51315e-10 3.08449e-10 5.96911e-11 -7.73091 5.47488 -0.417314 -1.51309e-10 3.08457e-10 5.96781e-11 -2.90554 0.965183 -0.102902 -1.51313e-10 3.08457e-10 5.96812e-11 -10.2786 0.731801 -0.0259123 -1.51305e-10 3.0846e-10 5.96719e-11 -2.22167 -0.733487 0.20892 -2.03217e-16 0.0 -3.88251e-19 0.0108795 -9.68046 3.23865 0.0117562 11.2703 0.1382 -1.00512 -1.9464 -4.54859 2.03217e-16 0.0 3.88251e-19 0.978529 -7.6462 -1.19723 -0.019437 8.06548 -0.0944608 0.793627 -2.12033 2.43305
50.5565 83.5222 -29.0391 0.5722 -13.5074 4.8877 -1.54487 0.140147 -0.282328 1.6403 0.119563 -0.0542101 -0.364771 0.574444 0.269576 -2.57827 -4.78978 0.423571 -0.0 0.0 0.0 -0.0 0.0 0.0 -8.71595e-15 9.01006e-14 1.54179e-13 32.3067 32.0242 27.2742 -29.832 -32.0288 35.7466 -0.0030543 -3.27039 -0.45958 -2.88002e-10 -1.65155e-09 1.16753e-09 -5.02085e-10 -2.87157e-09 2.01545e-09 -2.87999e-10 -1.65155e-09 1.16751e-09 7.73091 5.47488 0.417314 -2.88004e-10 -1.65155e-09 1.16753e-09 2.90554 0.965183 0.102902 -2.87997e-10 -1.65155e-09 1.16753e-09 10.2786 0.731801 0.0259123 -2.88006e-10 -1.65155e-09 1.16754e-09 2.22167 -0.733487 -0.20892 -8.77458e-15 9.01016e-14 1.53987e-13 -16.8072 -1.10107 -30.9483 16.7548 -12.2344 -25.1267 0.113506 -19.9759 2.79642 -2.21676e-10 7.11194e-10 1.31603e-10 -3.86905e-10 1.25045e-09 2.20347e-10 -2.21681e-10 7.11178e-10 1.31613e-10 -7.73091 5.47488 -0.417314 -2.21676e-10 7.11193e-10 1.316e-10 -2.90554 0.965183 -0.102902 -2.2168e-10 7.11194e-10 1.31601e-10 -10.2786 0.731801 -0.0259123 -2.21672e-10 7.11197e-10 1.31594e-10 -2.22167 -0.733487 0.20892 -2.03217e-16 0.0 -3.88251e-19 -0.348375 -14.9778 6.90706 -0.0237199 20.2397 0.306254 -2.17067 -5.86098 -9.51417 2.03217e-16 0.0 3.88251e-19 1.83977 -13.2964 -2.53214 0.0133523 18.0714 -0.282869 1.64854 -8.24261 5.20297
50.5522 83.5179 -29.0568 0.5155 -13.4201 4.9736 -2.53801 0.204608 -0.430937 2.31563 0.173939 -0.095397 -0.532916 0.850686 0.389026 -3.72777 -6.9875 0.612118 -0.0 0.0 0.0 -0.0 0.0 0.0 -5.94866e-15 1.27154e-13 2.11525e-13 35.0174 40.6525 46.4589 -29.7045 -36.4903 58.5439 -0.0217559 -4.74278 -0.667725 -3.63968e-10 -2.31034e-09 1.6467e-09 -6.35201e-10 -4.0171e-09 2.84274e-09 -3.63965e-10 -2.31034e-09 1.64668e-09 7.73091 5.47488 0.417314 -3.6397e-10 -2.31033e-09 1.64671e-09 2.90554 0.965183 0.102902 -3.63961e-10 -2.31033e-09 1.64671e-09 10.2786 0.731801 0.0259123 -3.63971e-10 -2.31033e-09 1.64671e-09 2.22167 -0.733487 -0.20892 -5.95048e-15 1.27156e-13 2.11423e-13 -24.8812 -1.26519 -45.1306 20.9327 -15.8322 -37.4016 0.903913 -29.0429 4.37826 -2.50655e-10 9.25286e-10 1.77064e-10 -4.38476e-10 1.62845e-09 2.96476e-10 -2.5066e-10 9.25263e-10 1.77076e-10 -7.73091 5.47488 -0.417314 -2.50655e-10 9.25285e-10 1.77062e-10 -2.90554 0.965183 -0.102902 -2.50659e-10 9.25286e-10 1.77062e-10 -10.2786 0.731801 -0.0259123 -2.50651e-10 9.25289e-10 1.77056e-10 -2.22167 -0.733487 0.20892 -2.03217e-16 0.0 -3.88251e-19 -0.0857916 -19.5842 10.3438 -0.105909 28.2418 0.47978 -3.78174 -9.21586 -14.0188 2.03217e-16 0.0 3.88251e-19 2.36079 -18.3209 -3.79612 0.105133 26.9944 -0.477196 2.92118 -13.6283 7.78627
